# xmcd
#
# Track frame offsets:
#	150
#	17985
#	29801
#	47488
#	67362
#	79460
#	92761
#	106135
#	121064
#	142046
#	158950
#	175372
#	194413
#	211702
#	227580
#
# Disc length: 3227 seconds
#
# Revision: 1
# Processed by: cddbd v1.5.2PL0 Copyright (c) Steve Scherf et al.
# Submitted via: audiograbber 1.83.01
#
DISCID=d60c990f
DTITLE=Various Artist - CB80150
DYEAR=1900
DGENRE=KARAOKE
TTITLE0=RESTLESS HEART - WHEELS
TTITLE1=GEORGE STRAIT - IF YOU AIN'T LOVIN' (YOU AIN'T LIVING)
TTITLE2=TANYA TUCKER and PAUL DAVIS and OVERSTREET - I WON'T TAKE LESS THAN YOUR LO
TTITLE2=VE
TTITLE3=KEITH WHITLEY - DON'T CLOSE YOUR EYES
TTITLE4=RANDY TRAVIS - HONKY TONK MOON
TTITLE5=DWIGHT YOAKAM and BUCK OWENS - STREETS OF BAKERSFIELD (M/M DUET)
TTITLE6=TANYA TUCKER - STRONG ENOUGH TO BEND
TTITLE7=RICKY VAN SHELTON - I'LL LEAVE THIS WORLD LOVING YOU
TTITLE8=RESTLESS HEART - BLUEST EYES IN TEXAS
TTITLE9=GEORGE STRAIT - BABY BLUE
TTITLE10=RICKY VAN SHELTON - LIFE TURNED HER THAT WAY
TTITLE11=ALABAMA - FALLIN' AGAIN
TTITLE12=MICHAEL JOHNSON - GIVE ME WINGS
TTITLE13=GRAHAM T BROWN - DARLENE
TTITLE14=ALABAMA - FACE TO FACE
EXTD=
EXTT0=
EXTT1=
EXTT2=
EXTT3=
EXTT4=
EXTT5=
EXTT6=
EXTT7=
EXTT8=
EXTT9=
EXTT10=
EXTT11=
EXTT12=
EXTT13=
EXTT14=
PLAYORDER=
